<mxfile host="app.diagrams.net" modified="2024-07-02T13:15:23.317Z" agent="Mozilla/5.0 (Windows NT 10.0; Win64; x64) AppleWebKit/537.36 (KHTML, like Gecko) Chrome/126.0.0.0 Safari/537.36" etag="zY6AgDS10944HDuOPOlX" version="24.6.4" type="device">
  <diagram name="Page-1" id="YD9YNO3W3kEjFjg9zSt1">
    <mxGraphModel dx="683" dy="351" grid="1" gridSize="10" guides="1" tooltips="1" connect="1" arrows="1" fold="1" page="1" pageScale="1" pageWidth="850" pageHeight="1100" math="0" shadow="0">
      <root>
        <mxCell id="0" />
        <mxCell id="1" parent="0" />
        <mxCell id="6h_jf9M55JEFoOA6feOM-1" value="Conventional Methods" style="rounded=1;whiteSpace=wrap;html=1;" vertex="1" parent="1">
          <mxGeometry x="50" y="70" width="140" height="60" as="geometry" />
        </mxCell>
        <mxCell id="6h_jf9M55JEFoOA6feOM-2" value="Deep Learning" style="rounded=1;whiteSpace=wrap;html=1;" vertex="1" parent="1">
          <mxGeometry x="200" y="70" width="140" height="60" as="geometry" />
        </mxCell>
        <mxCell id="6h_jf9M55JEFoOA6feOM-3" value="Reinforcement Learning" style="rounded=1;whiteSpace=wrap;html=1;" vertex="1" parent="1">
          <mxGeometry x="350" y="70" width="140" height="60" as="geometry" />
        </mxCell>
      </root>
    </mxGraphModel>
  </diagram>
</mxfile>
